# xmcd
#
# Track frame offsets:
# 182
# 13667
# 28077
# 41565
# 54385
# 66030
# 80892
# 93455
# 106830
# 117777
# 129312
# 141465
# 156850
# 170215
# 184442
# 197487
# 212292
# 226665
# 240505
# 255477
# 269502
# 281760
# 295797
# 307162
#
# Disc length: 4257 seconds
#
#
# Revision: 0
# Processed by: cddbd v1.5.1PL0 Copyright (c) Steve Scherf et al.
# Submitted via: FreeRIP 2.70 
#
DISCID=5d109f18
DTITLE=Fred Astaire - Crazy Feet
DYEAR=1995
DGENRE=Swing
TTITLE0=crazy feet
TTITLE1=i used to be colour blind
TTITLE2=a fine romance
TTITLE3=the yam
TTITLE4=i'd rather lead a band
TTITLE5=let's call the whole thing off
TTITLE6=nice work if you can get it
TTITLE7=a foggy day
TTITLE8=we saw the sea
TTITLE9=let's face the music and dance
TTITLE10=let yourself go
TTITLE11=cheek to cheek
TTITLE12=the yam step
TTITLE13=they can't take that away from me
TTITLE14=i'm putting all my egs in one basket
TTITLE15=the way you look tonight
TTITLE16=i'm building up to an awful let down
TTITLE17=pick yourself up
TTITLE18=night and day
TTITLE19=wedding the spring
TTITLE20=you were never lovelier
TTITLE21=the `shorty George´
TTITLE22=i'm old fashioned
TTITLE23=dearly beloved
EXTD=
EXTT0=
EXTT1=
EXTT2=
EXTT3=
EXTT4=
EXTT5=
EXTT6=
EXTT7=
EXTT8=
EXTT9=
EXTT10=
EXTT11=
EXTT12=
EXTT13=
EXTT14=
EXTT15=
EXTT16=
EXTT17=
EXTT18=
EXTT19=
EXTT20=
EXTT21=
EXTT22=
EXTT23=
PLAYORDER=
